<mxfile host="www.draw.io" modified="2020-02-05T14:58:22.468Z" agent="Mozilla/5.0 (Macintosh; Intel Mac OS X 10_15_2) AppleWebKit/537.36 (KHTML, like Gecko) Chrome/79.0.3945.130 Safari/537.36" etag="hWB1403B9VD6Tkh_DkK7" version="12.6.5" type="github">
  <diagram name="Page-1" id="e3a06f82-3646-2815-327d-82caf3d4e204">
    <mxGraphModel dx="1710" dy="775" grid="1" gridSize="10" guides="1" tooltips="1" connect="1" arrows="1" fold="1" page="1" pageScale="1.5" pageWidth="1169" pageHeight="826" background="none" math="0" shadow="0">
      <root>
        <mxCell id="0" style=";html=1;"/>
        <mxCell id="1" style=";html=1;" parent="0"/>
        <mxCell id="6a7d8f32e03d9370-59" value="web层" style="whiteSpace=wrap;html=1;fillColor=#E6FFCC;fontSize=28;strokeColor=#FF0000;verticalAlign=top;fontColor=#FF0000;" parent="1" vertex="1">
          <mxGeometry x="410" y="337" width="190" height="310" as="geometry"/>
        </mxCell>
        <mxCell id="T7gIQ1GEO2uKVAjOibIa-20" value="" style="verticalLabelPosition=top;aspect=fixed;html=1;verticalAlign=bottom;strokeColor=none;shape=mxgraph.citrix.cache_server;fillColor=#FF0000;gradientColor=#0066CC;fontSize=14;labelPosition=center;align=center;" parent="1" vertex="1">
          <mxGeometry x="464.40000000000003" y="425.75" width="71" height="97.5" as="geometry"/>
        </mxCell>
        <mxCell id="T7gIQ1GEO2uKVAjOibIa-35" value="" style="edgeStyle=orthogonalEdgeStyle;rounded=0;orthogonalLoop=1;jettySize=auto;html=1;fontColor=#FF0000;" parent="1" source="T7gIQ1GEO2uKVAjOibIa-15" target="T7gIQ1GEO2uKVAjOibIa-6" edge="1">
          <mxGeometry relative="1" as="geometry"/>
        </mxCell>
        <mxCell id="T7gIQ1GEO2uKVAjOibIa-15" value="访问客户端" style="whiteSpace=wrap;html=1;fillColor=#EDEDED;fontSize=14;strokeColor=none;verticalAlign=top;" parent="1" vertex="1">
          <mxGeometry x="33" y="540" width="190" height="440" as="geometry"/>
        </mxCell>
        <mxCell id="T7gIQ1GEO2uKVAjOibIa-51" value="" style="rounded=0;orthogonalLoop=1;jettySize=auto;html=1;fontColor=#FF0000;startArrow=none;startFill=0;" parent="1" source="6a7d8f32e03d9370-60" target="T7gIQ1GEO2uKVAjOibIa-37" edge="1">
          <mxGeometry relative="1" as="geometry"/>
        </mxCell>
        <mxCell id="T7gIQ1GEO2uKVAjOibIa-91" value="" style="edgeStyle=none;rounded=0;orthogonalLoop=1;jettySize=auto;html=1;startArrow=classic;startFill=1;fontSize=25;fontColor=#FF0000;" parent="1" source="6a7d8f32e03d9370-60" target="T7gIQ1GEO2uKVAjOibIa-16" edge="1">
          <mxGeometry relative="1" as="geometry"/>
        </mxCell>
        <mxCell id="6a7d8f32e03d9370-60" value="数据处理" style="whiteSpace=wrap;html=1;fillColor=#d5e8d4;fontSize=28;strokeColor=#FF0000;verticalAlign=top;fontColor=#FF0000;" parent="1" vertex="1">
          <mxGeometry x="661.5" y="117" width="418.5" height="750" as="geometry"/>
        </mxCell>
        <mxCell id="T7gIQ1GEO2uKVAjOibIa-50" value="" style="edgeStyle=orthogonalEdgeStyle;rounded=0;orthogonalLoop=1;jettySize=auto;html=1;fontColor=#FF0000;" parent="1" source="6a7d8f32e03d9370-59" target="6a7d8f32e03d9370-60" edge="1">
          <mxGeometry relative="1" as="geometry"/>
        </mxCell>
        <mxCell id="6a7d8f32e03d9370-2" value="Client" style="verticalLabelPosition=bottom;aspect=fixed;html=1;verticalAlign=top;strokeColor=none;shape=mxgraph.citrix.laptop_2;fillColor=#66B2FF;gradientColor=#0066CC;fontSize=14;" parent="1" vertex="1">
          <mxGeometry x="56.499999999999886" y="720" width="116" height="86.5" as="geometry"/>
        </mxCell>
        <mxCell id="6a7d8f32e03d9370-5" value="Client" style="verticalLabelPosition=bottom;aspect=fixed;html=1;verticalAlign=top;strokeColor=none;shape=mxgraph.citrix.desktop;fillColor=#66B2FF;gradientColor=#0066CC;fontSize=14;" parent="1" vertex="1">
          <mxGeometry x="83.50000000000006" y="580" width="89" height="98" as="geometry"/>
        </mxCell>
        <mxCell id="6a7d8f32e03d9370-12" value="" style="verticalLabelPosition=bottom;aspect=fixed;html=1;verticalAlign=top;strokeColor=none;shape=mxgraph.citrix.xenapp_server;fillColor=#66B2FF;gradientColor=#0066CC;fontSize=14;fontColor=#FF0000;" parent="1" vertex="1">
          <mxGeometry x="748.5000000000001" y="160" width="76" height="89" as="geometry"/>
        </mxCell>
        <mxCell id="6a7d8f32e03d9370-15" value="nginx" style="verticalLabelPosition=bottom;aspect=fixed;html=1;verticalAlign=top;strokeColor=none;shape=mxgraph.citrix.cache_server;fillColor=#FF0000;gradientColor=#0066CC;fontSize=25;labelPosition=center;align=center;fontColor=#FF0000;horizontal=1;" parent="1" vertex="1">
          <mxGeometry x="484.62" y="450" width="71" height="97.5" as="geometry"/>
        </mxCell>
        <mxCell id="6a7d8f32e03d9370-62" value="友云音私有部署" style="text;strokeColor=none;fillColor=none;html=1;fontSize=24;fontStyle=1;verticalAlign=middle;align=center;" parent="1" vertex="1">
          <mxGeometry x="499" y="30" width="861" height="40" as="geometry"/>
        </mxCell>
        <mxCell id="T7gIQ1GEO2uKVAjOibIa-2" value="Client" style="verticalLabelPosition=bottom;aspect=fixed;html=1;verticalAlign=top;strokeColor=none;shape=mxgraph.citrix.pda;fillColor=#66B2FF;gradientColor=#0066CC;fontSize=14;" parent="1" vertex="1">
          <mxGeometry x="113.00000000000006" y="860" width="30" height="61" as="geometry"/>
        </mxCell>
        <mxCell id="T7gIQ1GEO2uKVAjOibIa-36" style="edgeStyle=orthogonalEdgeStyle;rounded=0;orthogonalLoop=1;jettySize=auto;html=1;fontColor=#FF0000;" parent="1" source="T7gIQ1GEO2uKVAjOibIa-4" target="6a7d8f32e03d9370-59" edge="1">
          <mxGeometry relative="1" as="geometry"/>
        </mxCell>
        <mxCell id="T7gIQ1GEO2uKVAjOibIa-4" value="本地客户业务系统集群" style="verticalLabelPosition=bottom;aspect=fixed;html=1;verticalAlign=top;strokeColor=none;shape=mxgraph.citrix.chassis;fillColor=#66B2FF;gradientColor=#0066CC;fontSize=14;" parent="1" vertex="1">
          <mxGeometry x="454.37" y="79.3" width="101.25" height="130.7" as="geometry"/>
        </mxCell>
        <mxCell id="T7gIQ1GEO2uKVAjOibIa-11" style="edgeStyle=orthogonalEdgeStyle;rounded=0;orthogonalLoop=1;jettySize=auto;html=1;" parent="1" target="6a7d8f32e03d9370-59" edge="1">
          <mxGeometry relative="1" as="geometry">
            <mxPoint x="335" y="512.8214285714287" as="sourcePoint"/>
            <mxPoint x="387.5" y="515.25" as="targetPoint"/>
          </mxGeometry>
        </mxCell>
        <mxCell id="T7gIQ1GEO2uKVAjOibIa-6" value="防火墙" style="verticalLabelPosition=bottom;aspect=fixed;html=1;verticalAlign=top;strokeColor=none;align=center;outlineConnect=0;shape=mxgraph.citrix.firewall;" parent="1" vertex="1">
          <mxGeometry x="280" y="445.5" width="75" height="93" as="geometry"/>
        </mxCell>
        <mxCell id="T7gIQ1GEO2uKVAjOibIa-13" style="edgeStyle=orthogonalEdgeStyle;rounded=0;orthogonalLoop=1;jettySize=auto;html=1;" parent="1" source="T7gIQ1GEO2uKVAjOibIa-12" target="T7gIQ1GEO2uKVAjOibIa-6" edge="1">
          <mxGeometry relative="1" as="geometry">
            <Array as="points">
              <mxPoint x="154" y="507"/>
            </Array>
          </mxGeometry>
        </mxCell>
        <mxCell id="T7gIQ1GEO2uKVAjOibIa-12" value="异地客户业务系统集群" style="verticalLabelPosition=bottom;aspect=fixed;html=1;verticalAlign=top;strokeColor=none;shape=mxgraph.citrix.chassis;fillColor=#66B2FF;gradientColor=#0066CC;fontSize=14;" parent="1" vertex="1">
          <mxGeometry x="97" y="83.68" width="113" height="145.87" as="geometry"/>
        </mxCell>
        <mxCell id="T7gIQ1GEO2uKVAjOibIa-90" value="" style="edgeStyle=none;rounded=0;orthogonalLoop=1;jettySize=auto;html=1;startArrow=none;startFill=0;fontSize=25;fontColor=#FF0000;" parent="1" source="T7gIQ1GEO2uKVAjOibIa-16" target="T7gIQ1GEO2uKVAjOibIa-37" edge="1">
          <mxGeometry relative="1" as="geometry"/>
        </mxCell>
        <mxCell id="T7gIQ1GEO2uKVAjOibIa-16" value="数据存储" style="whiteSpace=wrap;html=1;fillColor=#93D087;fontSize=28;strokeColor=#FF0000;verticalAlign=top;fontColor=#FF0000;" parent="1" vertex="1">
          <mxGeometry x="1150" y="89.5" width="470" height="770" as="geometry"/>
        </mxCell>
        <mxCell id="T7gIQ1GEO2uKVAjOibIa-17" value="" style="verticalLabelPosition=bottom;aspect=fixed;html=1;verticalAlign=top;strokeColor=none;shape=mxgraph.citrix.xenapp_server;fillColor=#66B2FF;gradientColor=#0066CC;fontSize=14;fontColor=#FF0000;" parent="1" vertex="1">
          <mxGeometry x="748.5000000000001" y="292.75" width="76" height="89" as="geometry"/>
        </mxCell>
        <mxCell id="T7gIQ1GEO2uKVAjOibIa-18" value="" style="verticalLabelPosition=bottom;aspect=fixed;html=1;verticalAlign=top;strokeColor=none;shape=mxgraph.citrix.xenapp_server;fillColor=#66B2FF;gradientColor=#0066CC;fontSize=14;fontColor=#FF0000;" parent="1" vertex="1">
          <mxGeometry x="748.5000000000001" y="425.75" width="76" height="89" as="geometry"/>
        </mxCell>
        <mxCell id="T7gIQ1GEO2uKVAjOibIa-19" value="" style="verticalLabelPosition=bottom;aspect=fixed;html=1;verticalAlign=top;strokeColor=none;shape=mxgraph.citrix.xenapp_server;fillColor=#66B2FF;gradientColor=#0066CC;fontSize=14;fontColor=#FF0000;" parent="1" vertex="1">
          <mxGeometry x="755.5" y="555.75" width="76" height="89" as="geometry"/>
        </mxCell>
        <mxCell id="T7gIQ1GEO2uKVAjOibIa-21" value="" style="aspect=fixed;html=1;points=[];align=center;image;fontSize=12;image=img/lib/mscae/Docker.svg;fillColor=#93D087;" parent="1" vertex="1">
          <mxGeometry x="964.69" y="131.61" width="60.98" height="50" as="geometry"/>
        </mxCell>
        <mxCell id="T7gIQ1GEO2uKVAjOibIa-22" value="" style="dashed=0;outlineConnect=0;html=1;align=center;labelPosition=center;verticalLabelPosition=bottom;verticalAlign=top;shape=mxgraph.weblogos.java;fillColor=#93D087;" parent="1" vertex="1">
          <mxGeometry x="180" y="250" width="34.4" height="65" as="geometry"/>
        </mxCell>
        <mxCell id="T7gIQ1GEO2uKVAjOibIa-24" value="" style="dashed=0;outlineConnect=0;html=1;align=center;labelPosition=center;verticalLabelPosition=bottom;verticalAlign=top;shape=mxgraph.weblogos.java;fillColor=#93D087;" parent="1" vertex="1">
          <mxGeometry x="430" y="216.25" width="34.4" height="65" as="geometry"/>
        </mxCell>
        <mxCell id="T7gIQ1GEO2uKVAjOibIa-26" value="友云音agent和探针" style="text;html=1;align=center;verticalAlign=middle;resizable=0;points=[];autosize=1;fontColor=#FF0000;fontSize=25;" parent="1" vertex="1">
          <mxGeometry x="159.99999999999997" y="309" width="230" height="40" as="geometry"/>
        </mxCell>
        <mxCell id="T7gIQ1GEO2uKVAjOibIa-37" value="基础服务层" style="whiteSpace=wrap;html=1;fillColor=#CCE5FF;fontSize=28;strokeColor=#FF0000;verticalAlign=top;fontColor=#FF0000;spacing=5;horizontal=1;" parent="1" vertex="1">
          <mxGeometry x="410" y="910" width="1210" height="250" as="geometry"/>
        </mxCell>
        <mxCell id="T7gIQ1GEO2uKVAjOibIa-39" value="" style="verticalLabelPosition=bottom;aspect=fixed;html=1;verticalAlign=top;strokeColor=none;align=center;outlineConnect=0;shape=mxgraph.citrix.database_server;fillColor=#CCE5FF;fontColor=#FF0000;spacing=5;horizontal=1;fontSize=14;" parent="1" vertex="1">
          <mxGeometry x="530" y="976.5" width="80" height="90" as="geometry"/>
        </mxCell>
        <mxCell id="T7gIQ1GEO2uKVAjOibIa-41" value="" style="verticalLabelPosition=bottom;aspect=fixed;html=1;verticalAlign=top;strokeColor=none;align=center;outlineConnect=0;shape=mxgraph.citrix.directory_server;fillColor=#CCE5FF;fontColor=#FF0000;spacing=5;horizontal=1;fontSize=14;" parent="1" vertex="1">
          <mxGeometry x="712.5" y="975.75" width="65" height="88.5" as="geometry"/>
        </mxCell>
        <mxCell id="T7gIQ1GEO2uKVAjOibIa-42" value="" style="verticalLabelPosition=bottom;aspect=fixed;html=1;verticalAlign=top;strokeColor=none;align=center;outlineConnect=0;shape=mxgraph.citrix.directory_server;fillColor=#CCE5FF;fontColor=#FF0000;spacing=5;horizontal=1;fontSize=14;" parent="1" vertex="1">
          <mxGeometry x="750.5" y="977.25" width="65" height="88.5" as="geometry"/>
        </mxCell>
        <mxCell id="T7gIQ1GEO2uKVAjOibIa-43" value="" style="verticalLabelPosition=bottom;aspect=fixed;html=1;verticalAlign=top;strokeColor=none;align=center;outlineConnect=0;shape=mxgraph.citrix.directory_server;fillColor=#CCE5FF;fontColor=#FF0000;spacing=5;horizontal=1;fontSize=14;" parent="1" vertex="1">
          <mxGeometry x="795.5" y="985.75" width="65" height="88.5" as="geometry"/>
        </mxCell>
        <mxCell id="T7gIQ1GEO2uKVAjOibIa-44" value="zookeeper" style="text;html=1;align=center;verticalAlign=middle;resizable=0;points=[];autosize=1;strokeColor=#000000;fontColor=#FF0000;spacing=5;horizontal=1;fontSize=25;" parent="1" vertex="1">
          <mxGeometry x="721.67" y="1066.5" width="140" height="50" as="geometry"/>
        </mxCell>
        <mxCell id="T7gIQ1GEO2uKVAjOibIa-45" value="&lt;div style=&quot;text-align: justify&quot;&gt;&lt;span&gt;harbor docker仓库&lt;/span&gt;&lt;/div&gt;" style="verticalLabelPosition=bottom;aspect=fixed;html=1;verticalAlign=top;strokeColor=none;align=center;outlineConnect=0;shape=mxgraph.citrix.file_server;fillColor=#CCE5FF;fontColor=#FF0000;spacing=5;horizontal=1;fontSize=25;whiteSpace=wrap;" parent="1" vertex="1">
          <mxGeometry x="1490" y="960" width="71" height="97" as="geometry"/>
        </mxCell>
        <mxCell id="T7gIQ1GEO2uKVAjOibIa-49" value="apollo配置中心" style="verticalLabelPosition=bottom;aspect=fixed;html=1;verticalAlign=top;strokeColor=none;align=center;outlineConnect=0;shape=mxgraph.citrix.edgesight_server;fillColor=#CCE5FF;fontColor=#FF0000;spacing=5;horizontal=1;fontSize=25;" parent="1" vertex="1">
          <mxGeometry x="1150" y="974.25" width="76.5" height="90" as="geometry"/>
        </mxCell>
        <mxCell id="T7gIQ1GEO2uKVAjOibIa-54" value="datastore" style="verticalLabelPosition=bottom;aspect=fixed;html=1;verticalAlign=top;strokeColor=none;shape=mxgraph.citrix.xenapp_server;fillColor=#66B2FF;gradientColor=#0066CC;fontSize=14;fontColor=#FF0000;" parent="1" vertex="1">
          <mxGeometry x="765.5" y="565.75" width="76" height="89" as="geometry"/>
        </mxCell>
        <mxCell id="T7gIQ1GEO2uKVAjOibIa-56" value="adapter" style="verticalLabelPosition=bottom;aspect=fixed;html=1;verticalAlign=top;strokeColor=none;shape=mxgraph.citrix.xenapp_server;fillColor=#66B2FF;gradientColor=#0066CC;fontSize=14;fontColor=#FF0000;" parent="1" vertex="1">
          <mxGeometry x="758.5000000000001" y="435.75" width="76" height="89" as="geometry"/>
        </mxCell>
        <mxCell id="T7gIQ1GEO2uKVAjOibIa-57" value="openapi" style="verticalLabelPosition=bottom;aspect=fixed;html=1;verticalAlign=top;strokeColor=none;shape=mxgraph.citrix.xenapp_server;fillColor=#66B2FF;gradientColor=#0066CC;fontSize=14;fontColor=#FF0000;" parent="1" vertex="1">
          <mxGeometry x="758.5000000000001" y="302.75" width="76" height="89" as="geometry"/>
        </mxCell>
        <mxCell id="T7gIQ1GEO2uKVAjOibIa-58" value="web" style="verticalLabelPosition=bottom;aspect=fixed;html=1;verticalAlign=top;strokeColor=none;shape=mxgraph.citrix.xenapp_server;fillColor=#66B2FF;gradientColor=#0066CC;fontSize=14;fontColor=#FF0000;" parent="1" vertex="1">
          <mxGeometry x="758.5000000000001" y="170" width="76" height="89" as="geometry"/>
        </mxCell>
        <mxCell id="T7gIQ1GEO2uKVAjOibIa-59" value="" style="verticalLabelPosition=bottom;aspect=fixed;html=1;verticalAlign=top;strokeColor=none;shape=mxgraph.citrix.xenapp_server;fillColor=#66B2FF;gradientColor=#0066CC;fontSize=14;fontColor=#FF0000;" parent="1" vertex="1">
          <mxGeometry x="753.67" y="700" width="76" height="89" as="geometry"/>
        </mxCell>
        <mxCell id="T7gIQ1GEO2uKVAjOibIa-60" value="receiver" style="verticalLabelPosition=bottom;aspect=fixed;html=1;verticalAlign=top;strokeColor=none;shape=mxgraph.citrix.xenapp_server;fillColor=#66B2FF;gradientColor=#0066CC;fontSize=14;fontColor=#FF0000;" parent="1" vertex="1">
          <mxGeometry x="763.67" y="710" width="76" height="89" as="geometry"/>
        </mxCell>
        <mxCell id="T7gIQ1GEO2uKVAjOibIa-63" value="" style="verticalLabelPosition=bottom;aspect=fixed;html=1;verticalAlign=top;strokeColor=none;shape=mxgraph.citrix.xenapp_server;fillColor=#66B2FF;gradientColor=#0066CC;fontSize=14;fontColor=#FF0000;" parent="1" vertex="1">
          <mxGeometry x="866.67" y="250" width="76" height="89" as="geometry"/>
        </mxCell>
        <mxCell id="T7gIQ1GEO2uKVAjOibIa-64" value="query" style="verticalLabelPosition=bottom;aspect=fixed;html=1;verticalAlign=top;strokeColor=none;shape=mxgraph.citrix.xenapp_server;fillColor=#66B2FF;gradientColor=#0066CC;fontSize=14;fontColor=#FF0000;" parent="1" vertex="1">
          <mxGeometry x="876.67" y="260" width="76" height="89" as="geometry"/>
        </mxCell>
        <mxCell id="T7gIQ1GEO2uKVAjOibIa-65" value="" style="verticalLabelPosition=bottom;aspect=fixed;html=1;verticalAlign=top;strokeColor=none;shape=mxgraph.citrix.xenapp_server;fillColor=#66B2FF;gradientColor=#0066CC;fontSize=14;fontColor=#FF0000;" parent="1" vertex="1">
          <mxGeometry x="874.17" y="400" width="76" height="89" as="geometry"/>
        </mxCell>
        <mxCell id="T7gIQ1GEO2uKVAjOibIa-66" value="messenger" style="verticalLabelPosition=bottom;aspect=fixed;html=1;verticalAlign=top;strokeColor=none;shape=mxgraph.citrix.xenapp_server;fillColor=#66B2FF;gradientColor=#0066CC;fontSize=14;fontColor=#FF0000;" parent="1" vertex="1">
          <mxGeometry x="884.17" y="410" width="76" height="89" as="geometry"/>
        </mxCell>
        <mxCell id="T7gIQ1GEO2uKVAjOibIa-67" value="" style="verticalLabelPosition=bottom;aspect=fixed;html=1;verticalAlign=top;strokeColor=none;shape=mxgraph.citrix.xenapp_server;fillColor=#66B2FF;gradientColor=#0066CC;fontSize=14;fontColor=#FF0000;" parent="1" vertex="1">
          <mxGeometry x="871.67" y="569.67" width="76" height="89" as="geometry"/>
        </mxCell>
        <mxCell id="T7gIQ1GEO2uKVAjOibIa-68" value="aiops" style="verticalLabelPosition=bottom;aspect=fixed;html=1;verticalAlign=top;strokeColor=none;shape=mxgraph.citrix.xenapp_server;fillColor=#66B2FF;gradientColor=#0066CC;fontSize=14;fontColor=#FF0000;" parent="1" vertex="1">
          <mxGeometry x="881.67" y="579.67" width="76" height="89" as="geometry"/>
        </mxCell>
        <mxCell id="T7gIQ1GEO2uKVAjOibIa-72" value="kafka" style="text;html=1;align=center;verticalAlign=middle;resizable=0;points=[];autosize=1;strokeColor=#000000;fontColor=#FF0000;spacing=5;horizontal=1;fontSize=25;" parent="1" vertex="1">
          <mxGeometry x="955" y="1068.5" width="90" height="50" as="geometry"/>
        </mxCell>
        <mxCell id="T7gIQ1GEO2uKVAjOibIa-74" value="" style="verticalLabelPosition=bottom;aspect=fixed;html=1;verticalAlign=top;strokeColor=none;align=center;outlineConnect=0;shape=mxgraph.citrix.command_center;fillColor=#CCE5FF;fontColor=#FF0000;spacing=5;horizontal=1;fontSize=14;" parent="1" vertex="1">
          <mxGeometry x="920" y="977.25" width="75.5" height="96" as="geometry"/>
        </mxCell>
        <mxCell id="T7gIQ1GEO2uKVAjOibIa-75" value="" style="verticalLabelPosition=bottom;aspect=fixed;html=1;verticalAlign=top;strokeColor=none;align=center;outlineConnect=0;shape=mxgraph.citrix.command_center;fillColor=#CCE5FF;fontColor=#FF0000;spacing=5;horizontal=1;fontSize=14;" parent="1" vertex="1">
          <mxGeometry x="970" y="982" width="75.5" height="96" as="geometry"/>
        </mxCell>
        <mxCell id="T7gIQ1GEO2uKVAjOibIa-76" value="" style="verticalLabelPosition=bottom;aspect=fixed;html=1;verticalAlign=top;strokeColor=none;align=center;outlineConnect=0;shape=mxgraph.citrix.command_center;fillColor=#CCE5FF;fontColor=#FF0000;spacing=5;horizontal=1;fontSize=14;" parent="1" vertex="1">
          <mxGeometry x="1005.5" y="982.5" width="75.5" height="96" as="geometry"/>
        </mxCell>
        <mxCell id="T7gIQ1GEO2uKVAjOibIa-77" value="redis cluster" style="verticalLabelPosition=bottom;aspect=fixed;html=1;verticalAlign=top;strokeColor=none;align=center;outlineConnect=0;shape=mxgraph.citrix.database_server;fillColor=#CCE5FF;fontColor=#FF0000;spacing=5;horizontal=1;fontSize=25;" parent="1" vertex="1">
          <mxGeometry x="555.62" y="982" width="80" height="90" as="geometry"/>
        </mxCell>
        <mxCell id="T7gIQ1GEO2uKVAjOibIa-78" value="mysql database" style="verticalLabelPosition=bottom;aspect=fixed;html=1;verticalAlign=top;strokeColor=none;align=center;outlineConnect=0;shape=mxgraph.citrix.database_server;fillColor=#CCE5FF;fontColor=#FF0000;spacing=5;horizontal=1;fontSize=25;whiteSpace=wrap;" parent="1" vertex="1">
          <mxGeometry x="1330" y="974.25" width="80" height="90" as="geometry"/>
        </mxCell>
        <mxCell id="T7gIQ1GEO2uKVAjOibIa-80" value="CDH" style="fontColor=#FF0000;verticalAlign=top;verticalLabelPosition=bottom;labelPosition=center;align=center;html=1;outlineConnect=0;fillColor=#CCCCCC;strokeColor=#6881B3;gradientColor=none;gradientDirection=north;strokeWidth=2;shape=mxgraph.networks.server_storage;fontSize=25;" parent="1" vertex="1">
          <mxGeometry x="1226.5" y="140.75" width="120" height="190" as="geometry"/>
        </mxCell>
        <mxCell id="T7gIQ1GEO2uKVAjOibIa-81" value="友云音agent和探针" style="text;html=1;align=center;verticalAlign=middle;resizable=0;points=[];autosize=1;fontColor=#FF0000;fontSize=25;" parent="1" vertex="1">
          <mxGeometry x="461.8" y="241.25" width="230" height="40" as="geometry"/>
        </mxCell>
        <mxCell id="T7gIQ1GEO2uKVAjOibIa-86" value="OPENTSDB" style="fontColor=#FF0000;verticalAlign=top;verticalLabelPosition=bottom;labelPosition=center;align=center;html=1;outlineConnect=0;fillColor=#CCCCCC;strokeColor=#6881B3;gradientColor=none;gradientDirection=north;strokeWidth=2;shape=mxgraph.networks.server_storage;fontSize=25;" parent="1" vertex="1">
          <mxGeometry x="1416.5" y="230.75" width="120" height="190" as="geometry"/>
        </mxCell>
        <mxCell id="T7gIQ1GEO2uKVAjOibIa-87" value="ELASTIC SEARCH" style="fontColor=#FF0000;verticalAlign=top;verticalLabelPosition=bottom;labelPosition=center;align=center;html=1;outlineConnect=0;fillColor=#CCCCCC;strokeColor=#6881B3;gradientColor=none;gradientDirection=north;strokeWidth=2;shape=mxgraph.networks.server_storage;fontSize=25;whiteSpace=wrap;" parent="1" vertex="1">
          <mxGeometry x="1226.5" y="460.75" width="120" height="190" as="geometry"/>
        </mxCell>
        <mxCell id="T7gIQ1GEO2uKVAjOibIa-88" value="DRUID" style="fontColor=#FF0000;verticalAlign=top;verticalLabelPosition=bottom;labelPosition=center;align=center;html=1;outlineConnect=0;fillColor=#CCCCCC;strokeColor=#6881B3;gradientColor=none;gradientDirection=north;strokeWidth=2;shape=mxgraph.networks.server_storage;fontSize=25;" parent="1" vertex="1">
          <mxGeometry x="1426.5" y="558.25" width="120" height="190" as="geometry"/>
        </mxCell>
        <mxCell id="T7gIQ1GEO2uKVAjOibIa-92" value="" style="verticalLabelPosition=bottom;aspect=fixed;html=1;verticalAlign=top;strokeColor=none;shape=mxgraph.citrix.xenapp_server;fillColor=#66B2FF;gradientColor=#0066CC;fontSize=14;fontColor=#FF0000;" parent="1" vertex="1">
          <mxGeometry x="888.6899999999999" y="713.75" width="76" height="89" as="geometry"/>
        </mxCell>
        <mxCell id="T7gIQ1GEO2uKVAjOibIa-93" value="。。。。" style="verticalLabelPosition=bottom;aspect=fixed;html=1;verticalAlign=top;strokeColor=none;shape=mxgraph.citrix.xenapp_server;fillColor=#66B2FF;gradientColor=#0066CC;fontSize=14;fontColor=#FF0000;" parent="1" vertex="1">
          <mxGeometry x="898.6899999999999" y="723.75" width="76" height="89" as="geometry"/>
        </mxCell>
      </root>
    </mxGraphModel>
  </diagram>
</mxfile>
